{
	"asset":{
		"copyright":"Sengchor & 0x74h51n",
		"generator":"Khronos glTF Blender I/O v4.4.56",
		"version":"2.0"
	},
	"scene":0,
	"scenes":[
		{
			"name":"Scene",
			"nodes":[
				0
			]
		}
	],
	"nodes":[
		{
			"mesh":0,
			"name":"Baked"
		}
	],
	"materials":[
		{
			"doubleSided":true,
			"name":"bakeMaterial",
			"normalTexture":{
				"index":0
			},
			"pbrMetallicRoughness":{
				"baseColorTexture":{
					"index":1
				},
				"metallicFactor":0,
				"metallicRoughnessTexture":{
					"index":2
				}
			}
		}
	],
	"meshes":[
		{
			"name":"Cube.001_Material.001_0.002",
			"primitives":[
				{
					"attributes":{
						"POSITION":0,
						"NORMAL":1,
						"TEXCOORD_0":2
					},
					"indices":3,
					"material":0
				}
			]
		}
	],
	"textures":[
		{
			"sampler":0,
			"source":0
		},
		{
			"sampler":0,
			"source":1
		},
		{
			"sampler":0,
			"source":2
		}
	],
	"images":[
		{
			"mimeType":"image/avif",
			"name":"Normal",
			"uri":"nTextures/Normal.avif"
		},
		{
			"mimeType":"image/avif",
			"name":"Diffuse_",
			"uri":"nTextures/Diffuse_.avif"
		},
		{
			"mimeType":"image/avif",
			"name":"Roughness",
			"uri":"nTextures/Roughness.avif"
		}
	],
	"accessors":[
		{
			"bufferView":0,
			"componentType":5126,
			"count":22496,
			"max":[
				8.445330619812012,
				6.057315349578857,
				8.599864959716797
			],
			"min":[
				-9.161073684692383,
				-0.18452931940555573,
				-6.367580413818359
			],
			"type":"VEC3"
		},
		{
			"bufferView":1,
			"componentType":5126,
			"count":22496,
			"type":"VEC3"
		},
		{
			"bufferView":2,
			"componentType":5126,
			"count":22496,
			"type":"VEC2"
		},
		{
			"bufferView":3,
			"componentType":5123,
			"count":35841,
			"type":"SCALAR"
		}
	],
	"bufferViews":[
		{
			"buffer":0,
			"byteLength":269952,
			"byteOffset":0,
			"target":34962
		},
		{
			"buffer":0,
			"byteLength":269952,
			"byteOffset":269952,
			"target":34962
		},
		{
			"buffer":0,
			"byteLength":179968,
			"byteOffset":539904,
			"target":34962
		},
		{
			"buffer":0,
			"byteLength":71682,
			"byteOffset":719872,
			"target":34963
		}
	],
	"samplers":[
		{
			"magFilter":9729,
			"minFilter":9987
		}
	],
	"buffers":[
		{
			"byteLength":791556,
			"uri":"abandonedHouse.bin"
		}
	]
}
