<?xml version="1.0" encoding="UTF-8" standalone="no"?>
<!-- Created with Inkscape (http://www.inkscape.org/) -->

<svg
   width="151.57117mm"
   height="151.57088mm"
   viewBox="0 0 151.57117 151.57088"
   version="1.1"
   id="svg1"
   xmlns="http://www.w3.org/2000/svg"
   xmlns:svg="http://www.w3.org/2000/svg">
  <defs
     id="defs1" />
  <g
     id="layer1"
     transform="translate(-32.789686,-14.005124)">
    <path
       id="path11"
       d="m 179.87653,144.16198 c -0.82312,0.91019 -3.7962,3.88669 -7.47457,3.97891 -2.05778,0.0529 -4.01649,-0.83676 -5.81793,-2.63839 -1.56664,-1.56594 -2.40819,-3.65958 -2.50178,-6.21941 0.15318,-1.16122 0.73688,-2.03726 2.57059,-3.87133 1.13767,-1.13732 2.30811,-1.71453 3.4813,-1.71453 1.61719,0 2.74427,1.0861 2.75281,1.09464 0.0324,0.0324 0.0666,0.0615 0.11271,0.10247 0.70526,0.61817 1.07412,1.28588 1.09804,1.98603 0.029,0.86922 -0.47133,1.82382 -1.4857,2.83818 -0.18784,0.18785 -0.39277,0.30739 -0.62331,0.38936 0.0956,-0.84018 -0.19125,-1.70939 -0.79748,-2.31563 -0.53452,-0.53451 -1.23638,-0.82994 -1.9758,-0.82994 -0.69845,0 -1.34959,0.2664 -1.83339,0.75139 -0.50103,0.50036 -0.76743,1.16806 -0.75018,1.87675 0.0171,0.70358 0.31097,1.3747 0.82754,1.89041 l 0.0459,0.0461 0.0179,0.0103 c 0.0119,0.0103 0.0261,0.0239 0.0428,0.041 0.34973,0.33642 1.41705,1.36104 2.99836,1.36104 1.18173,0 2.36004,-0.57891 3.50078,-1.72135 1.37298,-1.37129 2.07142,-2.89455 2.02189,-4.40415 -0.029,-0.87432 -0.36031,-2.17731 -1.7794,-3.41879 l -0.0273,-0.0239 c -0.14857,-0.14685 -1.75209,-1.665 -4.14628,-1.665 -1.71964,0 -3.3645,0.77358 -4.88896,2.29856 -0.21431,0.21347 -0.4276,0.44058 -0.63867,0.67624 0.76111,-3.48711 2.28113,-7.27306 3.75676,-10.94971 l 0.28859,-0.71895 c 3.44954,0.54476 6.69244,2.25587 9.39914,4.96426 7.09374,7.09205 3.72276,14.08846 1.82552,16.18551 z m -22.16943,-0.8641 c -4.89031,0 -10.54278,2.26952 -16.01029,4.46562 l -0.0895,0.0359 c -0.003,-0.14004 -0.005,-0.28006 -0.005,-0.42009 0,-4.88059 2.13563,-9.81923 6.19703,-14.37707 0.21091,0.0324 0.42419,0.053 0.64055,0.053 0,0 0,0 0,0 1.08507,0 2.09671,-0.41326 2.84809,-1.16465 0.91789,-0.91874 1.28726,-2.18584 1.12213,-3.4171 4.38313,-3.7091 9.09379,-5.65587 13.75341,-5.65587 0.13935,0 0.27954,0.002 0.4194,0.005 l -0.036,0.0905 c -3.15208,7.85028 -6.39737,15.93621 -3.06942,21.78164 -1.64605,-0.93582 -3.55355,-1.3969 -5.7703,-1.3969 z m -4.24208,2.52398 c -0.23668,0.21174 -0.46261,0.42521 -0.67692,0.63866 -1.52446,1.52497 -2.29753,3.16948 -2.29753,4.88913 0,2.39248 1.51813,3.99941 1.6638,4.14798 l 0.0259,0.029 c 1.23945,1.41567 2.54309,1.74696 3.4183,1.776 0.049,0.001 0.0982,0.003 0.14754,0.003 1.46092,0 2.93262,-0.70014 4.25625,-2.02361 2.17218,-2.17219 2.29975,-4.48098 0.3593,-6.50119 -0.0161,-0.0153 -0.0299,-0.0307 -0.041,-0.0427 l -0.055,-0.0632 c -0.53434,-0.53451 -1.22851,-0.82823 -1.95463,-0.82823 -0.68564,0 -1.32995,0.2664 -1.81409,0.75139 -1.02853,1.02802 -0.99336,2.73742 0.0787,3.80985 0.5159,0.51573 1.24542,0.81116 2.00159,0.81116 0.10622,0 0.21107,-0.005 0.31439,-0.0171 -0.0806,0.23054 -0.20014,0.43718 -0.38884,0.62673 -1.01353,1.01266 -1.96949,1.51131 -2.83836,1.48398 -0.70049,-0.0239 -1.36871,-0.39276 -1.98604,-1.09805 -0.041,-0.0461 -0.071,-0.0803 -0.10076,-0.10928 -0.0109,-0.0119 -1.09617,-1.13733 -1.09617,-2.75622 0,-1.17148 0.57686,-2.34296 1.71436,-3.48028 1.83372,-1.83406 2.70993,-2.41809 3.871,-2.57178 2.56068,0.0939 4.65294,0.93581 6.21958,2.50177 1.80213,1.80332 2.68978,3.76034 2.63838,5.8181 -0.0919,3.67837 -3.06907,6.65147 -3.97944,7.47456 -1.26693,1.14757 -3.84794,2.48641 -6.95201,2.48641 -3.26699,0 -6.37362,-1.44983 -9.23365,-4.31022 -2.70722,-2.70839 -4.419,-5.9513 -4.9641,-9.39913 l 0.71979,-0.28861 c 3.67649,-1.47715 7.46211,-2.997 10.94955,-3.75862 z M 184.28579,33.162005 c 0,0 -0.0598,-3.312913 -0.0393,-3.744967 0.42864,-8.950014 -2.69132,-15.411915 -8.31645,-15.411915 -5.62685,0 -6.2382,3.38465 -6.2382,4.689317 0,1.304681 0.36715,4.279485 3.79107,4.199219 2.93552,-0.07002 3.09946,-2.365158 3.09946,-3.017492 0,-0.652333 0.082,-2.853552 -2.36516,-2.853552 -2.4454,0 -2.03898,2.935522 -2.03898,2.935522 -2.28317,-1.222712 0.5089,-4.281188 3.34367,-4.240203 2.85355,0.04099 7.41991,2.853553 6.84955,13.861338 -0.0444,0.86238 -0.0461,64.072589 -0.0512,100.584748 -0.71894,-1.18856 -1.65646,-2.39248 -2.86038,-3.5964 -2.89284,-2.89112 -6.35945,-4.76787 -10.05489,-5.44753 3.14214,-8.00055 5.43728,-15.55536 0.48327,-20.50938 -0.56866,-0.57038 -2.62984,-2.428335 -5.24073,-2.428335 -1.41909,0 -2.70072,0.561821 -3.80901,1.671828 -1.5113,1.509607 -2.24613,2.962837 -2.24613,4.441707 0,1.35761 0.62212,2.64008 1.90186,3.91915 0.91754,0.91703 2.0827,1.42251 3.28064,1.42251 1.13203,0 2.17492,-0.444 3.01579,-1.28418 2.0798,-2.07998 1.77754,-4.24704 0.55363,-5.46975 -0.47918,-0.47985 -1.13698,-0.75479 -1.80452,-0.75479 -0.61887,0 -1.19145,0.23224 -1.6124,0.65405 -0.91549,0.91531 -0.88476,2.43516 0.0685,3.38806 0.38594,0.38593 0.90081,0.63526 1.44932,0.7104 -0.02,0.0205 -0.0407,0.0427 -0.0623,0.0632 -0.45937,0.45937 -1.01539,0.70186 -1.60796,0.70186 -0.66617,0 -1.33115,-0.29714 -1.87282,-0.83848 -0.88732,-0.888 -1.31868,-1.70939 -1.31868,-2.51201 0,-0.91021 0.55944,-1.9314 1.66295,-3.03457 0.72184,-0.72235 1.53845,-1.08781 2.42697,-1.08781 1.90766,0 3.61825,1.65647 3.80781,1.84431 4.17018,4.1719 1.99458,10.99754 -1.11615,18.84951 -0.39823,-0.0273 -0.80125,-0.041 -1.20153,-0.041 -4.95487,0 -9.92067,1.96042 -14.52512,5.70199 -0.14294,-0.20152 -0.30106,-0.3962 -0.48157,-0.57551 -0.83591,-0.83676 -1.93276,-1.29613 -3.08836,-1.29613 -1.08558,0 -2.09704,0.41326 -2.84859,1.16465 -1.60045,1.60181 -1.54171,4.2641 0.13131,5.93765 0.16019,0.16052 0.33266,0.30226 0.51078,0.43374 -4.09932,4.78837 -6.25084,9.99342 -6.25102,15.18651 0,0.40131 0.0133,0.80261 0.0396,1.20221 -4.41233,1.74869 -9.00757,3.42221 -12.75715,3.42221 0,0 0,0 -0.002,0 -2.54514,0 -4.53732,-0.75479 -6.08995,-2.30708 -0.17214,-0.17077 -1.05553,-1.09292 -1.53659,-2.30881 -0.59137,-1.49593 -0.32923,-2.81769 0.77922,-3.92597 1.10351,-1.10317 2.12437,-1.66158 3.0344,-1.66158 0.80312,0 1.62469,0.43033 2.51184,1.31833 0.54168,0.54134 0.83984,1.20563 0.83984,1.87162 0,0.59258 -0.24267,1.14929 -0.70203,1.60865 -0.0217,0.0222 -0.0434,0.0427 -0.0651,0.0632 -0.0741,-0.54134 -0.32105,-1.06219 -0.70903,-1.44983 -0.47509,-0.47474 -1.09908,-0.73772 -1.75721,-0.73772 -0.62125,0 -1.20068,0.23736 -1.63152,0.66941 -0.91414,0.91362 -0.86871,2.44712 0.10125,3.41709 0.61085,0.60964 1.45513,0.95973 2.31666,0.95973 1.07156,0 2.16175,-0.52256 3.15274,-1.51473 0.8407,-0.84018 1.2852,-1.88359 1.2852,-3.01579 0,-1.19708 -0.50547,-2.36174 -1.42301,-3.28047 -1.27958,-1.27907 -2.56172,-1.90066 -3.92018,-1.90066 -1.47732,0 -2.93022,0.73431 -4.44171,2.24561 -1.43735,1.43788 -1.96111,3.20705 -1.51471,5.11795 0.45663,1.95531 1.74115,3.40172 2.27225,3.93282 1.92798,1.92798 4.37032,2.8655 7.46654,2.8655 0,0 0,0 0,0 4.07319,0 8.8332,-1.69573 13.04215,-3.35049 0.67984,3.69716 2.55642,7.16378 5.44823,10.0549 1.15815,1.15781 2.35729,2.109 3.59144,2.85867 -36.51198,0.005 -99.716384,0.005 -100.578427,0.0512 -11.007782,0.57037 -13.820861,-3.99599 -13.861676,-6.84955 -0.0403,-2.83476 3.016979,-5.62684 4.240028,-3.34366 0,0 -2.935351,-0.40813 -2.935351,2.03898 0,2.44543 2.201556,2.36346 2.853724,2.36346 0.652508,0 2.947305,-0.16394 3.016979,-3.09776 0.08163,-3.42392 -2.894538,-3.79108 -4.199215,-3.79108 -1.304505,0 -4.688467,0.61135 -4.688467,6.23649 0,5.62685 6.461905,8.74509 15.410894,8.31817 0.43307,-0.0205 3.745138,0.0393 3.745138,0.0393 0,0 67.831743,0.11441 103.525733,0.0632 0.1624,0.005 0.32464,0.0119 0.48788,0.0119 3.68862,0 6.78757,-1.61889 8.32057,-3.00553 1.05876,-0.95801 4.52265,-4.43146 4.63364,-8.9022 0.0427,-1.69061 -0.39618,-3.3095 -1.29989,-4.83448 1.45871,0.8641 3.00247,1.30126 4.61282,1.30126 0.0751,0 0.14857,0 0.22371,-10e-4 4.47073,-0.11271 7.94247,-3.5759 8.90048,-4.63468 1.29444,-1.42934 3.17973,-4.76274 2.997,-8.89366 0.0512,-35.71808 -0.0632,-103.441715 -0.0632,-103.441715"
       style="fill:#231f20;fill-opacity:1;fill-rule:nonzero;stroke:none;stroke-width:0.0170769" />
  </g>
</svg>
